<?xml version="1.0" encoding="UTF-8" standalone="no"?>
<!-- Created with Inkscape (http://www.inkscape.org/) -->

<svg
   width="67.73333mm"
   height="118.53334mm"
   viewBox="0 0 67.73333 118.53334"
   version="1.1"
   id="svg1"
   inkscape:version="1.3.2 (091e20e, 2023-11-25, custom)"
   sodipodi:docname="semestralka.svg"
   xml:space="preserve"
   xmlns:inkscape="http://www.inkscape.org/namespaces/inkscape"
   xmlns:sodipodi="http://sodipodi.sourceforge.net/DTD/sodipodi-0.dtd"
   xmlns="http://www.w3.org/2000/svg"
   xmlns:svg="http://www.w3.org/2000/svg"><sodipodi:namedview
     id="namedview1"
     pagecolor="#ffffff"
     bordercolor="#000000"
     borderopacity="0.25"
     inkscape:showpageshadow="2"
     inkscape:pageopacity="0.0"
     inkscape:pagecheckerboard="0"
     inkscape:deskcolor="#d1d1d1"
     inkscape:document-units="mm"
     inkscape:zoom="1"
     inkscape:cx="145"
     inkscape:cy="699.5"
     inkscape:window-width="2560"
     inkscape:window-height="1566"
     inkscape:window-x="-11"
     inkscape:window-y="-11"
     inkscape:window-maximized="1"
     inkscape:current-layer="layer1"
     showguides="true" /><defs
     id="defs1" /><g
     inkscape:label="Vrstva 1"
     inkscape:groupmode="layer"
     id="layer1"
     transform="translate(-256.90732,376.14861)"><path
       id="path1-0-5-4"
       style="fill:#550a3c;fill-opacity:1;stroke-width:0.264583"
       d="m 290.77398,-376.14862 a 16.933335,16.933335 0 1 0 0,33.86667 16.933335,16.933335 0 1 0 0,-33.86667 z m -4.23333,42.33334 c -16.37769,0 -29.63333,13.25564 -29.63333,29.63333 0,11.82687 6.93209,22.01365 16.93333,26.77614 v 11.32386 c 0,4.68313 3.78354,8.46667 8.46667,8.46667 h 16.93333 c 4.68311,0 8.46667,-3.78354 8.46667,-8.46667 v -11.32386 c 10.00124,-4.76249 16.93333,-14.94927 16.93333,-26.77614 0,-16.37769 -13.25564,-29.63333 -29.63333,-29.63333 z m -12.7,18.41541 v 22.41 c -2.64583,-2.98979 -4.23333,-6.90583 -4.23333,-11.19208 v -0.0264 c 0,-4.28625 1.5875,-8.20177 4.23333,-11.19157 z m 33.86667,0.0527 c 2.64582,2.96334 4.23333,6.90584 4.23333,11.19208 0,4.28625 -1.58751,8.20178 -4.23333,11.19157 z" /></g></svg>
