<?xml version="1.0" encoding="UTF-8" standalone="no"?>
<!-- Created with Inkscape (http://www.inkscape.org/) -->

<svg
   width="372.53333mm"
   height="118.54104mm"
   viewBox="0 0 372.53333 118.54104"
   version="1.1"
   id="svg1"
   inkscape:version="1.3.2 (091e20e, 2023-11-25, custom)"
   sodipodi:docname="semestralka.svg"
   xml:space="preserve"
   xmlns:inkscape="http://www.inkscape.org/namespaces/inkscape"
   xmlns:sodipodi="http://sodipodi.sourceforge.net/DTD/sodipodi-0.dtd"
   xmlns="http://www.w3.org/2000/svg"
   xmlns:svg="http://www.w3.org/2000/svg"><sodipodi:namedview
     id="namedview1"
     pagecolor="#ffffff"
     bordercolor="#000000"
     borderopacity="0.25"
     inkscape:showpageshadow="2"
     inkscape:pageopacity="0.0"
     inkscape:pagecheckerboard="0"
     inkscape:deskcolor="#d1d1d1"
     inkscape:document-units="mm"
     inkscape:zoom="1"
     inkscape:cx="145"
     inkscape:cy="699.5"
     inkscape:window-width="2560"
     inkscape:window-height="1566"
     inkscape:window-x="-11"
     inkscape:window-y="-11"
     inkscape:window-maximized="1"
     inkscape:current-layer="layer1"
     showguides="true" /><defs
     id="defs1" /><g
     inkscape:label="Vrstva 1"
     inkscape:groupmode="layer"
     id="layer1"
     transform="translate(273.31458,192.61666)"><path
       d="m -152.66458,-177.7923 a 14.816667,14.816667 0 1 1 29.63333,0 14.816667,14.816667 0 1 1 -29.63333,0 z m -2.11667,41.7248 c -2.64583,2.96333 -4.23333,6.90562 -4.23333,11.19187 0,4.28625 1.5875,8.22854 4.23333,11.19188 v -22.41021 z m 38.20584,-13.04396 c -7.85813,6.95854 -12.80584,17.145 -12.80584,28.46916 0,9.07521 3.175,17.40959 8.46667,23.944793 v 5.68855 c 0,4.68312 -3.78354,8.46666 -8.46667,8.46666 h -16.93333 c -4.68313,0 -8.46667,-3.78354 -8.46667,-8.46666 v -7.09084 c -10.00125,-4.762503 -16.93333,-14.948953 -16.93333,-26.775833 0,-16.37771 13.25562,-29.63333 29.63333,-29.63333 h 8.46667 c 6.35,0 12.22375,1.98437 17.03917,5.37104 z m 63.394155,58.102503 v -5.68855 c 5.29167,-6.535203 8.46667,-14.869583 8.46667,-23.944793 0,-11.32416 -4.94771,-21.51062 -12.80583,-28.49562 4.81541,-3.38667 10.68916,-5.37104 17.03916,-5.37104 h 8.46667 c 16.37771,0 29.63333,13.25562 29.63333,29.63333 0,11.82688 -6.93208,22.01333 -16.93333,26.775833 v 7.09084 c 0,4.68312 -3.78354,8.46666 -8.46667,8.46666 h -16.93333 c -4.68313,0 -8.46667,-3.78354 -8.46667,-8.46666 z m 2.11667,-86.783343 a 14.816667,14.816667 0 1 1 29.63333,0 14.816667,14.816667 0 1 1 -29.63333,0 z m 31.75,41.7248 v 22.4102 c 2.64583,-2.98979 4.23333,-6.90562 4.23333,-11.19187 0,-4.28625 -1.5875,-8.22854 -4.23333,-11.19188 z m -67.733338,-56.54146 a 16.933333,16.933333 0 1 1 0,33.86666 16.933333,16.933333 0 1 1 0,-33.86666 z m -21.166657,71.96666 c 0,4.28625 1.5875,8.20209 4.23333,11.19188 v -22.41021 c -2.64583,2.98979 -4.23333,6.90563 -4.23333,11.19188 z m 38.099995,-11.19187 v 22.41021 c 2.64583,-2.98979 4.23333,-6.90563 4.23333,-11.19188 0,-4.28625 -1.5875,-8.22854 -4.23333,-11.19187 z m 16.93333,11.19187 c 0,11.82688 -6.93208,22.013343 -16.93333,26.775843 v 11.32416 c 0,4.68313 -3.783542,8.46667 -8.466667,8.46667 h -16.933331 c -4.683127,0 -8.466667,-3.78354 -8.466667,-8.46667 v -11.32416 c -10.00125,-4.7625 -16.93333,-14.948963 -16.93333,-26.775843 0,-16.3777 13.25562,-29.63333 29.633327,-29.63333 h 8.466668 c 16.37771,0 29.63333,13.25563 29.63333,29.63333 z"
       id="path1-0"
       style="fill:#550a3c;fill-opacity:1;stroke-width:0.264583" /><path
       d="m -51.064585,-177.7923 a 14.816667,14.816667 0 1 1 29.63333,0 14.816667,14.816667 0 1 1 -29.63333,0 z m -2.11667,41.7248 c -2.64583,2.96333 -4.23333,6.90562 -4.23333,11.19187 0,4.28625 1.5875,8.22854 4.23333,11.19188 v -22.41021 z m 38.20584,-13.04396 c -7.85813,6.95854 -12.80584,17.145 -12.80584,28.46916 0,9.07521 3.175,17.40959 8.46667,23.944793 v 5.68855 c 0,4.68312 -3.78354,8.46666 -8.46667,8.46666 h -16.93333 c -4.68313,0 -8.46667,-3.78354 -8.46667,-8.46666 v -7.09084 c -10.00125,-4.762503 -16.93333,-14.948953 -16.93333,-26.775833 0,-16.37771 13.25562,-29.63333 29.63333,-29.63333 h 8.46667 c 6.35,0 12.22375,1.98437 17.03917,5.37104 z m 63.394161,58.102503 v -5.68855 c 5.29167,-6.535203 8.46667,-14.869583 8.46667,-23.944793 0,-11.32416 -4.94771,-21.51062 -12.80583,-28.49562 4.81541,-3.38667 10.68916,-5.37104 17.03916,-5.37104 h 8.46667 c 16.37771,0 29.63333,13.25562 29.63333,29.63333 0,11.82688 -6.93208,22.01333 -16.93333,26.775833 v 7.09084 c 0,4.68312 -3.78354,8.46666 -8.46667,8.46666 h -16.93333 c -4.68313,0 -8.46667,-3.78354 -8.46667,-8.46666 z m 2.11667,-86.783343 a 14.816667,14.816667 0 1 1 29.63333,0 14.816667,14.816667 0 1 1 -29.63333,0 z m 31.75,41.7248 v 22.4102 c 2.64583,-2.98979 4.23333,-6.90562 4.23333,-11.19187 0,-4.28625 -1.5875,-8.22854 -4.23333,-11.19188 z m -67.733338,-56.54146 a 16.933333,16.933333 0 1 1 0,33.86666 16.933333,16.933333 0 1 1 0,-33.86666 z m -21.1666631,71.96666 c 0,4.28625 1.5875,8.20209 4.23333,11.19188 v -22.41021 c -2.64583,2.98979 -4.23333,6.90563 -4.23333,11.19188 z m 38.1000011,-11.19187 v 22.41021 c 2.64583,-2.98979 4.23333,-6.90563 4.23333,-11.19188 0,-4.28625 -1.5875,-8.22854 -4.23333,-11.19187 z m 16.93333,11.19187 c 0,11.82688 -6.93208,22.013343 -16.93333,26.775843 v 11.32416 c 0,4.68313 -3.783542,8.46667 -8.466667,8.46667 H 6.0854149 c -4.68313,0 -8.46667,-3.78354 -8.46667,-8.46667 v -11.32416 c -10.0012499,-4.7625 -16.9333299,-14.948963 -16.9333299,-26.775843 0,-16.3777 13.2556199,-29.63333 29.63333,-29.63333 h 8.466671 c 16.37771,0 29.63333,13.25563 29.63333,29.63333 z"
       id="path1-0-0"
       style="fill:#550a3c;fill-opacity:1;stroke-width:0.264583" /><path
       d="m -254.26458,-177.79229 a 14.816667,14.816667 0 1 1 29.63333,0 14.816667,14.816667 0 1 1 -29.63333,0 z m -2.11667,41.7248 c -2.64583,2.96333 -4.23333,6.90562 -4.23333,11.19187 0,4.28624 1.5875,8.22853 4.23333,11.19187 v -22.4102 z m 38.20584,-13.04396 c -7.85813,6.95854 -12.80584,17.145 -12.80584,28.46915 0,9.07521 3.175,17.40959 8.46667,23.944793 v 5.68855 c 0,4.68312 -3.78354,8.46666 -8.46667,8.46666 h -16.93333 c -4.68313,0 -8.46667,-3.78354 -8.46667,-8.46666 v -7.09084 c -10.00125,-4.762503 -16.93333,-14.948953 -16.93333,-26.775823 0,-16.37771 13.25562,-29.63333 29.63333,-29.63333 h 8.46667 c 6.35,0 12.22375,1.98437 17.03917,5.37104 z m 63.39416,58.102493 v -5.68855 c 5.29167,-6.535203 8.46667,-14.869583 8.46667,-23.944793 0,-11.32415 -4.94771,-21.51061 -12.80583,-28.49561 4.81541,-3.38667 10.68916,-5.37104 17.03916,-5.37104 h 8.46667 c 16.37771,0 29.63333,13.25562 29.63333,29.63333 0,11.82687 -6.93208,22.01332 -16.93333,26.775823 v 7.09084 c 0,4.68312 -3.78354,8.46666 -8.46667,8.46666 h -16.93333 c -4.68313,0 -8.46667,-3.78354 -8.46667,-8.46666 z m 2.11667,-86.783333 a 14.816667,14.816667 0 1 1 29.63333,0 14.816667,14.816667 0 1 1 -29.63333,0 z m 31.75,41.7248 v 22.41019 c 2.64583,-2.98979 4.23333,-6.90562 4.23333,-11.19186 0,-4.28625 -1.5875,-8.22854 -4.23333,-11.19188 z m -67.73334,-56.54146 a 16.933333,16.933333 0 1 1 0,33.86666 16.933333,16.933333 0 1 1 0,-33.86666 z m -21.16666,71.96665 c 0,4.28625 1.5875,8.20209 4.23333,11.19188 v -22.4102 c -2.64583,2.98979 -4.23333,6.90563 -4.23333,11.19187 z m 38.1,-11.19186 v 22.4102 c 2.64583,-2.98979 4.23333,-6.90563 4.23333,-11.19188 0,-4.28624 -1.5875,-8.22853 -4.23333,-11.19186 z m 16.93333,11.19186 c 0,11.82688 -6.93208,22.013343 -16.93333,26.775843 v 11.32416 c 0,4.68313 -3.78354,8.46667 -8.46667,8.46667 h -16.93333 c -4.68313,0 -8.46667,-3.78354 -8.46667,-8.46667 v -11.32416 c -10.00125,-4.7625 -16.93333,-14.948963 -16.93333,-26.775843 0,-16.37769 13.25562,-29.63332 29.63333,-29.63332 h 8.46667 c 16.37771,0 29.63333,13.25563 29.63333,29.63332 z"
       id="path1-0-0-2"
       style="fill:#550a3c;fill-opacity:1;stroke-width:0.264583" /></g></svg>
