<?xml version="1.0" encoding="UTF-8" standalone="no"?>
<!-- Created with Inkscape (http://www.inkscape.org/) -->

<svg
   width="270.93329mm"
   height="118.54105mm"
   viewBox="0 0 270.93329 118.54105"
   version="1.1"
   id="svg1"
   inkscape:version="1.3.2 (091e20e, 2023-11-25, custom)"
   sodipodi:docname="semestralka.svg"
   xml:space="preserve"
   xmlns:inkscape="http://www.inkscape.org/namespaces/inkscape"
   xmlns:sodipodi="http://sodipodi.sourceforge.net/DTD/sodipodi-0.dtd"
   xmlns="http://www.w3.org/2000/svg"
   xmlns:svg="http://www.w3.org/2000/svg"><sodipodi:namedview
     id="namedview1"
     pagecolor="#ffffff"
     bordercolor="#000000"
     borderopacity="0.25"
     inkscape:showpageshadow="2"
     inkscape:pageopacity="0.0"
     inkscape:pagecheckerboard="0"
     inkscape:deskcolor="#d1d1d1"
     inkscape:document-units="mm"
     inkscape:zoom="1"
     inkscape:cx="145"
     inkscape:cy="699.5"
     inkscape:window-width="2560"
     inkscape:window-height="1566"
     inkscape:window-x="-11"
     inkscape:window-y="-11"
     inkscape:window-maximized="1"
     inkscape:current-layer="layer1"
     showguides="true" /><defs
     id="defs1" /><g
     inkscape:label="Vrstva 1"
     inkscape:groupmode="layer"
     id="layer1"
     transform="translate(-220.13334,197.90833)"><path
       d="m 239.18333,-183.08397 a 14.816667,14.816667 0 1 1 29.63333,0 14.816667,14.816667 0 1 1 -29.63333,0 z m -2.11667,41.7248 c -2.64583,2.96333 -4.23333,6.90563 -4.23333,11.19188 0,4.28625 1.5875,8.22854 4.23333,11.19188 v -22.41022 z m 38.20584,-13.04396 c -7.85813,6.95854 -12.80584,17.145 -12.80584,28.46917 0,9.07521 3.175,17.40959 8.46667,23.94479 v 5.688549 c 0,4.68312 -3.78354,8.46666 -8.46667,8.46666 h -16.93333 c -4.68313,0 -8.46667,-3.78354 -8.46667,-8.46666 v -7.090839 c -10.00125,-4.7625 -16.93333,-14.94895 -16.93333,-26.77583 0,-16.37772 13.25562,-29.63334 29.63333,-29.63334 h 8.46667 c 6.35,0 12.22375,1.98437 17.03917,5.37104 z m 63.39415,58.102509 v -5.688549 c 5.29167,-6.5352 8.46667,-14.86958 8.46667,-23.94479 0,-11.32417 -4.94771,-21.51063 -12.80583,-28.49563 4.81541,-3.38667 10.68916,-5.37104 17.03916,-5.37104 h 8.46667 c 16.37771,0 29.63333,13.25562 29.63333,29.63334 0,11.82688 -6.93208,22.01333 -16.93333,26.77583 v 7.090839 c 0,4.68312 -3.78354,8.46666 -8.46667,8.46666 h -16.93333 c -4.68313,0 -8.46667,-3.78354 -8.46667,-8.46666 z m 2.11667,-86.783349 a 14.816667,14.816667 0 1 1 29.63333,0 14.816667,14.816667 0 1 1 -29.63333,0 z m 31.75,41.7248 v 22.41021 c 2.64583,-2.98979 4.23333,-6.90562 4.23333,-11.19187 0,-4.28625 -1.5875,-8.22855 -4.23333,-11.19189 z m -67.73333,-56.54146 a 16.933333,16.933333 0 1 1 0,33.86666 16.933333,16.933333 0 1 1 0,-33.86666 z m -21.16666,71.96667 c 0,4.28625 1.5875,8.20209 4.23333,11.19188 v -22.41022 c -2.64583,2.9898 -4.23333,6.90564 -4.23333,11.19189 z m 38.09999,-11.19188 v 22.41022 c 2.64583,-2.98979 4.23333,-6.90563 4.23333,-11.19188 0,-4.28625 -1.5875,-8.22854 -4.23333,-11.19188 z m 16.93333,11.19188 c 0,11.82688 -6.93208,22.01334 -16.93333,26.775839 v 11.32416 c 0,4.68313 -3.78354,8.46667 -8.46666,8.46667 h -16.93333 c -4.68313,0 -8.46667,-3.78354 -8.46667,-8.46667 v -11.32416 c -10.00125,-4.762499 -16.93333,-14.948959 -16.93333,-26.775839 0,-16.37771 13.25562,-29.63334 29.63333,-29.63334 h 8.46666 c 16.37771,0 29.63333,13.25563 29.63333,29.63334 z"
       id="path1-0-5"
       style="fill:#550a3c;fill-opacity:1;stroke-width:0.264583"
       inkscape:export-filename="Semestralka\images\people-five-royal-purple.svg"
       inkscape:export-xdpi="96"
       inkscape:export-ydpi="96" /><path
       d="m 340.78332,-183.08397 a 14.816667,14.816667 0 1 1 29.63333,0 14.816667,14.816667 0 1 1 -29.63333,0 z m -2.11667,41.7248 c -2.64583,2.96333 -4.23333,6.90562 -4.23333,11.19187 0,4.28625 1.5875,8.22854 4.23333,11.19188 v -22.41021 z m 38.20584,-13.04396 c -7.85813,6.95854 -12.80584,17.145 -12.80584,28.46916 0,9.07521 3.175,17.40959 8.46667,23.9448 v 5.688549 c 0,4.68312 -3.78354,8.46666 -8.46667,8.46666 h -16.93333 c -4.68313,0 -8.46667,-3.78354 -8.46667,-8.46666 v -7.090839 c -10.00125,-4.76251 -16.93333,-14.94896 -16.93333,-26.77584 0,-16.37771 13.25562,-29.63333 29.63333,-29.63333 h 8.46667 c 6.35,0 12.22375,1.98437 17.03917,5.37104 z m 63.39416,58.102509 v -5.688549 c 5.29167,-6.53521 8.46667,-14.86959 8.46667,-23.9448 0,-11.32416 -4.94771,-21.51062 -12.80583,-28.49562 4.81541,-3.38667 10.68916,-5.37104 17.03916,-5.37104 h 8.46667 c 16.37771,0 29.63333,13.25562 29.63333,29.63333 0,11.82688 -6.93208,22.01333 -16.93333,26.77584 v 7.090839 c 0,4.68312 -3.78354,8.46666 -8.46667,8.46666 h -16.93333 c -4.68313,0 -8.46667,-3.78354 -8.46667,-8.46666 z m 2.11667,-86.783349 a 14.816667,14.816667 0 1 1 29.63333,0 14.816667,14.816667 0 1 1 -29.63333,0 z m 31.75,41.7248 v 22.4102 c 2.64583,-2.98979 4.23333,-6.90562 4.23333,-11.19187 0,-4.28625 -1.5875,-8.22854 -4.23333,-11.19188 z m -67.73333,-56.54146 a 16.933333,16.933333 0 1 1 0,33.86666 16.933333,16.933333 0 1 1 0,-33.86666 z m -21.16667,71.96666 c 0,4.28625 1.5875,8.20209 4.23333,11.19188 v -22.41021 c -2.64583,2.98979 -4.23333,6.90563 -4.23333,11.19188 z m 38.1,-11.19187 v 22.41021 c 2.64583,-2.98979 4.23333,-6.90563 4.23333,-11.19188 0,-4.28625 -1.5875,-8.22854 -4.23333,-11.19187 z m 16.93333,11.19187 c 0,11.82688 -6.93208,22.01335 -16.93333,26.775849 v 11.32416 c 0,4.68313 -3.78354,8.46667 -8.46666,8.46667 h -16.93334 c -4.68313,0 -8.46667,-3.78354 -8.46667,-8.46667 v -11.32416 c -10.00125,-4.762499 -16.93333,-14.948969 -16.93333,-26.775849 0,-16.3777 13.25562,-29.63333 29.63333,-29.63333 h 8.46667 c 16.37771,0 29.63333,13.25563 29.63333,29.63333 z"
       id="path1-0-0-24"
       style="opacity:1;fill:#550a3c;fill-opacity:1;stroke-width:0.264583" /></g></svg>
